<?xml version="1.0" encoding="UTF-8"?>
<svg id="Main_Logo" data-name="Main Logo" xmlns="http://www.w3.org/2000/svg" xmlns:xlink="http://www.w3.org/1999/xlink" viewBox="0 0 4000 4000">
  <defs>
    <style>
      .cls-1 {
        fill: url(#linear-gradient-2);
      }

      .cls-2 {
        fill: url(#linear-gradient-5);
      }

      .cls-3 {
        fill: url(#linear-gradient-3);
      }

      .cls-4 {
        fill: url(#linear-gradient);
      }

      .cls-5 {
        fill: url(#linear-gradient-4);
      }
    </style>
    <linearGradient id="linear-gradient" x1="577.33" y1="1657" x2="1470.76" y2="221.23" gradientUnits="userSpaceOnUse">
      <stop offset="0" stop-color="red"/>
      <stop offset="1" stop-color="#fff"/>
    </linearGradient>
    <linearGradient id="linear-gradient-2" x1="2090.38" y1="3607.04" x2="574.22" y2="1337.68" gradientUnits="userSpaceOnUse">
      <stop offset="0" stop-color="red"/>
      <stop offset="1" stop-color="#fff"/>
    </linearGradient>
    <linearGradient id="linear-gradient-3" x1="3420.25" y1="1338.77" x2="1901.9" y2="3618.71" xlink:href="#linear-gradient-2"/>
    <linearGradient id="linear-gradient-4" x1="2534.22" y1="222" x2="3417.08" y2="1660.56" gradientUnits="userSpaceOnUse">
      <stop offset="0" stop-color="red"/>
      <stop offset="1" stop-color="#fff"/>
    </linearGradient>
    <linearGradient id="linear-gradient-5" x1="1152.92" y1="394.5" x2="2846.77" y2="394.5" gradientUnits="userSpaceOnUse">
      <stop offset="0" stop-color="red"/>
      <stop offset="1" stop-color="#fff"/>
    </linearGradient>
  </defs>
  <g id="Outer_5" data-name="Outer 5">
    <polygon class="cls-4" points="1250 200 668.7 1144.61 909 1500 1712.27 200 1250 200"/>
  </g>
  <g id="Outer_4" data-name="Outer 4">
    <polygon class="cls-1" points="450 1500 1772.09 3461.81 1999.98 3123.47 668.7 1144.61 450 1500"/>
  </g>
  <g id="Outer_3" data-name="Outer 3">
    <polygon class="cls-3" points="2000 3800 3311 1854.64 3091 1500 1772.09 3461.81 2000 3800"/>
  </g>
  <g id="Outer_2" data-name="Outer 2">
    <polygon class="cls-5" points="3550 1500 2989.38 589 2528 589 3311 1854.64 3550 1500"/>
  </g>
  <g id="Outer_1" data-name="Outer 1">
    <polygon class="cls-2" points="2750 200 1712.27 200 1471.97 589 2989.38 589 2750 200"/>
  </g>
</svg>