<?xml version="1.0" encoding="UTF-8"?>
<svg id="Main_Logo" data-name="Main Logo" xmlns="http://www.w3.org/2000/svg" viewBox="0 0 4000 4000">
  <defs>
    <style>
      .cls-1 {
        fill: oklch(0.216 0.006 56.043);
      }
    </style>
  </defs>
  <path class="cls-1" d="m1683.1,215l-775.18,1254.54-220.66-326.34L1258.47,215h424.63m28.69-16h-462.27l-581.3,944.61,240.3,355.39L1711.8,199h0Z"/>
  <path class="cls-1" d="m668.83,1173.17l1311.39,1949.3-208.61,309.71L468.56,1498.61l200.27-325.44m-.6-29.55l-218.7,355.39,1322.09,1961.81,227.89-338.34L668.23,1143.61h0Z"/>
  <path class="cls-1" d="m3089.99,1528.48l201.49,324.8-1291.95,1917.09-208.62-309.57,1299.08-1932.32m.54-29.48l-1318.91,1961.81,227.91,338.19,1311-1945.36-220-354.64h0Z"/>
  <path class="cls-1" d="m2979.98,604l550.53,894.61-219.39,325.55-754.87-1220.16h423.73m8.94-16h-461.39l783,1265.64,239-354.64-560.62-911h0Z"/>
  <path class="cls-1" d="m2740.59,215l219.69,357h-1460.09l220.53-357h1019.87m8.94-16h-1037.73l-240.3,389h1517.42l-239.38-389h0Z"/>
</svg>