<svg xmlns="http://www.w3.org/2000/svg" id="Main_Logo" data-name="Main Logo" viewBox="0 0 4000 4000"><defs><style>.cls-1{fill:oklch(0.216 0.006 56.043)}</style></defs><path d="M1683.1 215 907.92 1469.54 687.26 1143.2 1258.47 215zm28.69-16h-462.27l-581.3 944.61L908.52 1499 1711.8 199Z" class="cls-1"/><path d="m668.83 1173.17 1311.39 1949.3-208.61 309.71L468.56 1498.61zm-.6-29.55-218.7 355.39 1322.09 1961.81 227.89-338.34L668.23 1143.61Z" class="cls-1"/><path d="m3089.99 1528.48 201.49 324.8-1291.95 1917.09-208.62-309.57zm.54-29.48L1771.62 3460.81 1999.53 3799l1311-1945.36zM2979.98 604l550.53 894.61-219.39 325.55L2556.25 604zm8.94-16h-461.39l783 1265.64 239-354.64-560.62-911ZM2740.59 215l219.69 357H1500.19l220.53-357zm8.94-16H1711.8l-240.3 389h1517.42l-239.38-389Z" class="cls-1"/></svg>